<?xml version="1.0" standalone="no"?><!DOCTYPE svg PUBLIC "-//W3C//DTD SVG 1.1//EN" "http://www.w3.org/Graphics/SVG/1.1/DTD/svg11.dtd"><svg t="1728732255665" class="icon" viewBox="0 0 1097 1024" version="1.1" xmlns="http://www.w3.org/2000/svg" p-id="7237" xmlns:xlink="http://www.w3.org/1999/xlink" width="214.2578125" height="200"><path d="M1095.920783 463.86371a102.235202 102.235202 0 0 0-39.85564-67.38894L959.022143 324.698052a104.026878 104.026878 0 0 0-62.598951-20.659116c-33.273975 0-63.147423 14.699053-82.563336 40.806325l-280.890853 362.576634a16.527293 16.527293 0 0 1-2.778925 3.80274 39.745946 39.745946 0 0 0-9.982193 19.0137l-41.537621 251.712136a36.162595 36.162595 0 0 0 13.858062 33.712753c6.069758 4.899684 14.369969 8.153952 22.670181 8.153952 5.009379 0 9.43372-1.096944 14.443099-2.705796l244.874517-99.492842c6.654795-3.290833 12.761118-7.60548 16.636988-14.15058 0.548472-0.548472 1.096944-1.608852 1.645416-2.705796l282.024362-364.770522c17.733932-22.81644 24.937199-49.472185 21.061329-76.12793zM745.191147 846.587553l-7.751739 11.40822-52.068286 19.0137-122.492106 50.569129 23.876819-144.57725 6.069758-34.261225 217.194958-280.525204 145.162287 108.23183-209.991691 270.1408z m272.04217-351.75345l-18.282404 23.401476-145.162287-108.158701 18.282404-23.401477c5.557851-7.60548 14.406534-11.40822 24.388727-11.40822a27.423606 27.423606 0 0 1 18.282404 5.996629l96.96987 71.740152a30.129402 30.129402 0 0 1 11.627609 19.562173 28.776504 28.776504 0 0 1-6.106323 22.304532z m-269.263244-273.395068c0-21.756061-16.088515-38.612437-36.016336-38.612437H218.84074C198.876355 182.826598 182.824404 200.231447 182.824404 221.439035c0 21.207588 16.088515 38.575872 36.016336 38.575872H711.917172c19.964385 0.548472 36.016336-17.404848 36.016336-38.575872zM217.743796 389.417762c-18.867441 0-34.370919 17.368284-34.37092 38.575872 0 21.756061 15.503478 38.612437 34.37092 38.612437h369.012039c18.830876 0 34.334354-17.916756 34.334355-38.612437 0-20.659116-15.503478-38.575872-34.370919-38.575872H217.780361z m214.964504 207.103071H216.061815c-18.282404 0-33.23741 17.404848-33.237411 38.612437 0 21.719496 14.991571 38.575872 33.273975 38.575872h216.061449c18.282404 0 33.23741-17.368284 33.23741-38.575872 0-21.756061-14.406534-38.612437-32.688938-38.612437z" fill="#2c2c2c" p-id="7238"></path><path d="M391.93854 950.980079H116.16676a42.268918 42.268918 0 0 1-42.342047-42.049529V114.889185c0-11.33509 4.351212-22.121709 13.017071-29.654059 8.153952-8.080823 18.465228-12.432035 29.873448-12.432034h789.836412c23.364912 0 42.342047 18.904006 42.342047 42.086093v140.77451h0.548472c0 19.964385 16.271339 36.711067 36.930456 36.711067a36.491678 36.491678 0 0 0 36.930456-36.674502H1023.814982v-140.77451c0-31.299475-12.468599-59.893155-34.188095-81.466391A115.325404 115.325404 0 0 0 907.648588 0.00256H115.654853C85.196368 0.00256 55.32292 11.33765 34.151896 33.459359A113.497163 113.497163 0 0 0 0.000366 114.889185v794.041365C0.000366 972.041408 52.105217 1023.817176 115.618288 1023.817176h276.320252a36.016336 36.016336 0 0 0 35.285039-36.12603 36.162595 36.162595 0 0 0-35.285039-36.711067z" fill="#2c2c2c" p-id="7239"></path></svg>